<?xml version="1.0" encoding="UTF-8"?>
<svg version="1.1" viewBox="0 0 100 100" xml:space="preserve" xmlns="http://www.w3.org/2000/svg">
	<path d="m75.132 54.237c1.607-9.476-2.288-19.452-10.776-25.174s-19.197-5.591-27.378-0.548c-14.621-6.995-26.376-9.164-29.453-4.599-3.825 5.673 7.017 19.874 24.962 33.632 0.028 0.021 0.055 0.042 0.083 0.063 0.593 0.454 1.195 0.907 1.803 1.36 0.083 0.062 0.166 0.125 0.25 0.188 0.546 0.404 1.1 0.808 1.658 1.211 0.148 0.107 0.293 0.215 0.442 0.322 0.528 0.379 1.064 0.756 1.602 1.133 0.177 0.124 0.35 0.249 0.528 0.373 0.713 0.497 1.435 0.991 2.165 1.483 0.732 0.493 1.463 0.978 2.192 1.454 0.144 0.094 0.286 0.183 0.429 0.276 0.592 0.384 1.183 0.765 1.773 1.138 0.118 0.074 0.234 0.146 0.352 0.219 0.618 0.389 1.235 0.772 1.85 1.148 0.078 0.047 0.155 0.093 0.233 0.14 0.657 0.4 1.313 0.794 1.966 1.18 0.031 0.018 0.062 0.035 0.092 0.053 19.483 11.476 36.713 16.199 40.538 10.526 3.077-4.565-3.343-14.648-15.311-25.578zm-53.987-22.798c1.19-1.766 5.329-1.304 11.088 0.865-1.063 1.085-2.048 2.275-2.928 3.581-1.248 1.852-2.209 3.81-2.91 5.824-4.374-4.671-6.468-8.463-5.25-10.27zm57.214 38.573c-1.218 1.807-5.519 1.286-11.488-1.015 1.604-1.405 3.059-3.031 4.307-4.883 0.88-1.305 1.614-2.664 2.221-4.058 4.17 4.526 6.151 8.19 4.96 9.956z"/>
	<path d="m25.25 53.613c0.985 6.802 4.728 13.179 10.876 17.323 6.148 4.145 13.463 5.223 20.138 3.585-5.164-2.679-10.601-5.899-16.086-9.597-5.484-3.696-10.508-7.529-14.928-11.311z"/>
</svg>
